<?xml version="1.0" encoding="utf-8"?>
<!-- Generator: Adobe Illustrator 19.2.0, SVG Export Plug-In . SVG Version: 6.00 Build 0)  -->
<svg version="1.1" id="Layer_1" xmlns="http://www.w3.org/2000/svg" xmlns:xlink="http://www.w3.org/1999/xlink" x="0px" y="0px"
	 viewBox="0 0 34.1 28.2" style="enable-background:new 0 0 34.1 28.2;" xml:space="preserve">
<style type="text/css">
	.st0{fill:#0C6DB6;}
	.st1{fill:#FFFFFF;}
	.st2{fill:#EB1F3C;}
	.st3{fill:none;}
</style>
<g>
	<path class="st0" d="M29.3,14.2c0,7.4-6.1,13.6-13.6,13.6C8.3,27.7,2.2,21.6,2.2,14.2c0-7.5,6.1-13.6,13.6-13.6
		C23.2,0.6,29.3,6.7,29.3,14.2z"/>
	<circle class="st1" cx="15.9" cy="1.8" r="0.1"/>
	<circle class="st1" cx="16.6" cy="3.5" r="0.1"/>
	<circle class="st1" cx="18.6" cy="6.2" r="0.1"/>
	<circle class="st1" cx="15.4" cy="4.5" r="0.1"/>
	<circle class="st1" cx="16.6" cy="5.1" r="0.1"/>
	<circle class="st1" cx="15" cy="3.3" r="0.1"/>
	<circle class="st1" cx="13.3" cy="4.4" r="0.1"/>
	<circle class="st1" cx="13.6" cy="4.6" r="0.1"/>
	<circle class="st1" cx="13.9" cy="4.9" r="0.1"/>
	<circle class="st1" cx="13.4" cy="5.3" r="0.1"/>
	<circle class="st1" cx="10.8" cy="7.1" r="0.1"/>
	<circle class="st1" cx="11.3" cy="7.7" r="0.1"/>
	<path class="st1" d="M11.2,13.6c1,1.7,2.2,3,3.1,4.2c0.8,1.1,2.5,1.6,1.9,2.1c-0.6,0.6-2.2-2-2.2-2c-1-1.3-2-2.6-3-4.3L11.2,13.6z"
		/>
	<path class="st2" d="M33.3,1.8c-2.5,3.6-7.2,6.3-12.5,8.4c-7,2.8-15.4,4.8-20.2,8l0.3,0.1c6.5-3.9,18.9-3.8,27-10"/>
	<circle class="st1" cx="10.9" cy="17" r="0.1"/>
	<circle class="st1" cx="11" cy="19.6" r="0.1"/>
	<circle class="st1" cx="9.5" cy="20.9" r="0.1"/>
	<circle class="st1" cx="7.8" cy="21.4" r="0.1"/>
	<circle class="st1" cx="7.4" cy="20.2" r="0.1"/>
	<circle class="st1" cx="7.2" cy="21" r="0.1"/>
	<circle class="st1" cx="5.9" cy="20.4" r="0.1"/>
	<circle class="st1" cx="10.5" cy="22.5" r="0.1"/>
	<circle class="st1" cx="11.9" cy="21.5" r="0.1"/>
	<circle class="st1" cx="12" cy="22.8" r="0.1"/>
	<circle class="st1" cx="17.7" cy="21.5" r="0.1"/>
	<circle class="st1" cx="15.1" cy="22.5" r="0.1"/>
	<circle class="st1" cx="22.1" cy="23.8" r="0.1"/>
	<circle class="st1" cx="22.7" cy="18.6" r="0.1"/>
	<circle class="st1" cx="21.6" cy="19.3" r="0.1"/>
	<circle class="st1" cx="22.7" cy="19.5" r="0.1"/>
	<circle class="st1" cx="21.6" cy="20.8" r="0.1"/>
	<circle class="st1" cx="24.4" cy="17.8" r="0.1"/>
	<circle class="st1" cx="24.6" cy="18.5" r="0.1"/>
	<circle class="st1" cx="26.5" cy="19.3" r="0.1"/>
	<circle class="st1" cx="24.6" cy="20.7" r="0.1"/>
	<circle class="st1" cx="25.9" cy="19.6" r="0.1"/>
	<circle class="st1" cx="25.6" cy="21.4" r="0.1"/>
	<path class="st1" d="M18.3,3.2c0-0.1,0.1-0.1,0.1-0.1V2.8l0.1,0.3c0.1,0,0.1,0.1,0.1,0.1h0.3l-0.3,0.1c0,0.1-0.1,0.1-0.1,0.1v0.3
		l-0.1-0.3C18.4,3.4,18.4,3.4,18.3,3.2h-0.2H18.3z"/>
	<path class="st1" d="M10.7,24c0-0.1,0.1-0.1,0.1-0.1v-0.3l0.1,0.3C11,23.9,11,24,11,24h0.3l-0.2,0.1c0,0.1-0.1,0.1-0.1,0.1v0.3
		l-0.1-0.3C10.8,24.3,10.7,24.2,10.7,24l-0.3,0.1L10.7,24z"/>
	<path class="st1" d="M24.7,21.3c0-0.1,0.1-0.1,0.1-0.1v-0.3l0.1,0.3c0.1,0,0.1,0.1,0.1,0.1h0.3l-0.2,0.2c0,0.1-0.1,0.1-0.1,0.1v0.3
		l-0.1-0.3C24.8,21.6,24.7,21.5,24.7,21.3l-0.3,0.1L24.7,21.3z"/>
	<path class="st1" d="M25.8,18.4c0-0.1,0.1-0.1,0.1-0.1V18l0.1,0.3c0.1,0,0.1,0.1,0.1,0.1h0.3l-0.3,0.1c0,0.1-0.1,0.1-0.1,0.1
		l-0.1,0.3l0.1-0.3C25.9,18.6,25.9,18.5,25.8,18.4l-0.3,0.1L25.8,18.4z"/>
	<path class="st1" d="M12.1,7.3c0-0.1,0.1-0.1,0.1-0.1V6.9l0.1,0.3c0.1,0,0.1,0.1,0.1,0.1h0.3l-0.3,0.1c0,0.1-0.1,0.1-0.1,0.1
		l-0.1,0.3l-0.1-0.3C12.2,7.5,12.1,7.5,12.1,7.3l-0.3,0.1L12.1,7.3z"/>
	<g>
		<path class="st1" d="M13.5,14.8L12.8,13l-0.5,1.8H13.5z M11.8,11.7h2.4l1.7,4.4l0.6,0.6h-3.2l0.6-0.6l-0.1-0.5h-1.7l-0.2,0.6
			l0.4,0.5h-1.6l0.6-0.6l1.1-3.9L11.8,11.7z"/>
		<path class="st1" d="M24.8,14.8L24.1,13l-0.5,1.8H24.8z M23.1,11.7h2.5l1.7,4.4l0.6,0.6h-3.2l0.6-0.6l-0.1-0.5h-1.7l-0.2,0.6
			l0.4,0.5h-1.6l0.6-0.6l1.1-3.9L23.1,11.7z"/>
		<path class="st1" d="M8.6,14.8c0-0.2,0-2.6,0-2.6l-0.5-0.5h1.7l-0.5,0.5v3.9l0.6,0.6H7.6l-1.9-3.2c0,0.1,0,2.6,0,2.6l0.5,0.6H4.4
			L5,16.1v-3.9l-0.5-0.5h2.2L8.6,14.8z"/>
		<path class="st1" d="M21.3,13l-0.1-1.5l-0.5,0.4c-0.7-0.3-1.6-0.2-2.2,0c-0.6,0.3-1.2,0.8-1.1,1.6s0.7,1.1,1.2,1.3
			c0.7,0.3,1.5,0.4,1.5,0.9c0,0.3-0.5,0.5-0.8,0.5s-1.4-0.1-1.9-0.7l0.1,1.6l0.6-0.5c0.7,0.2,1.6,0.4,2.3,0.1
			c0.8-0.3,1.6-0.9,1.1-2.1c-0.2-0.5-0.7-0.8-1.1-0.9c-0.3-0.1-1.2-0.5-1.4-0.6c-0.3-0.2-0.3-0.6,0.4-0.7
			C20.2,12.2,21.1,12.8,21.3,13z"/>
	</g>
	<path class="st2" d="M28,8.3C21.4,14,11.6,18.4,4.4,25.8v0.5c10.7-10.2,26.1-15.2,29-24.4"/>
	<path class="st1" d="M10.9,13.7c-0.1-0.2-0.2-0.4-0.3-0.6C8,8.4,8.4,3.7,13.1,5.7c4,1.8,7.8,6.7,9.3,10.2c0.7,1.6,2.6,8-3.5,5.4
		l0,0c5.8,2.4,4.8-3.6,1.7-8.3c-1.7-2.6-4-4.8-5.5-5.8c-4.8-3.5-7.7-1.4-4.3,5.5c0.2,0.3,0.3,0.6,0.5,0.9L10.9,13.7z"/>
	<rect class="st3" width="34.1" height="28.2"/>
</g>
</svg>
